<svg width="20" height="16" viewBox="0 0 20 16" fill="none" xmlns="http://www.w3.org/2000/svg">
<path d="M19.2424 10.2704C19.2195 10.1092 19.187 9.95126 19.1472 9.7969L19.1748 9.79332C19.1748 9.79332 17.5824 5.5717 17.2509 4.08106C16.9733 2.95292 16.1624 2.06799 15.1318 1.66229C15.1056 1.56831 15.0838 1.4836 15.0676 1.41128C14.843 0.496932 13.9575 -0.116236 13.0053 0.0185717C12.0532 0.153417 11.3726 0.988476 11.4107 1.92926C11.4183 2.05089 11.4282 2.20732 11.4395 2.3851C10.7298 3.06162 10.3118 4.02584 10.3535 5.05789C10.3553 5.08671 10.3571 5.11613 10.3589 5.14675H8.926C8.92777 5.11613 8.92958 5.08671 8.93158 5.05789C8.97316 4.0258 8.55544 3.06162 7.84544 2.3851C7.8567 2.20735 7.86664 2.05089 7.87429 1.92926C7.91226 0.988476 7.23182 0.153417 6.27962 0.0185717C5.32756 -0.116273 4.44192 0.496932 4.21732 1.41128C4.20112 1.48364 4.17935 1.56831 4.15306 1.66229C3.12251 2.06795 2.3116 2.95292 2.03396 4.08106C1.70246 5.5717 0.110083 9.79332 0.110083 9.79332L0.137692 9.7969C0.0979167 9.95126 0.0654861 10.1092 0.0426604 10.2704C-0.287484 12.6009 1.33446 14.7581 3.66494 15.0881C5.99542 15.4181 8.15249 13.7963 8.48248 11.4659C8.50531 11.3043 8.51789 11.144 8.52256 10.9845L8.55017 10.9887C8.55017 10.9887 8.55752 10.8746 8.57043 10.6774H10.7145C10.7274 10.8746 10.7347 10.9887 10.7347 10.9887L10.7624 10.9845C10.7671 11.144 10.7796 11.3043 10.8025 11.4659C11.1325 13.7963 13.2895 15.4181 15.62 15.0881C17.9508 14.7581 19.5724 12.6009 19.2424 10.2704ZM7.07599 11.2668C6.85572 12.8201 5.41785 13.9017 3.86405 13.6816C2.31039 13.4615 1.22922 12.0232 1.44934 10.4698C1.66931 8.91619 3.10733 7.83487 4.66099 8.05496C6.21475 8.27511 7.29592 9.71283 7.07599 11.2668ZM15.4209 13.6816C13.8671 13.9017 12.4292 12.8201 12.209 11.2668C11.989 9.71283 13.0702 8.27511 14.624 8.05496C16.1778 7.83487 17.6156 8.91615 17.8356 10.4698C18.0557 12.0232 16.9746 13.4616 15.4209 13.6816Z" fill="#F1F1F1"/>
</svg>
