<svg width="331" height="36" viewBox="0 0 331 36" fill="none" xmlns="http://www.w3.org/2000/svg">
<path d="M26.5928 24.377C26.5928 27.5518 25.4769 30.0508 23.2451 31.8739C21.0133 33.6657 17.9327 34.5615 14.0035 34.5615H-0.000232797V0.707324H13.5792C17.2884 0.707324 20.2117 1.49317 22.3492 3.06486C24.5181 4.63655 25.6026 6.89978 25.6026 9.85456C25.6026 11.3319 25.2254 12.6522 24.471 13.8152C23.7166 14.9783 22.6321 15.9841 21.2176 16.8329C22.9464 17.5558 24.2667 18.546 25.1782 19.8034C26.1213 21.0607 26.5928 22.5852 26.5928 24.377ZM12.8719 7.73278H8.06254V13.5795H12.8719C14.3493 13.5795 15.4338 13.3123 16.1253 12.7779C16.8483 12.2435 17.2098 11.5206 17.2098 10.609C17.2098 9.72882 16.8483 9.03728 16.1253 8.53434C15.4338 7.99997 14.3493 7.73278 12.8719 7.73278ZM13.2963 20.6049H8.06254V27.5361H13.2963C14.9623 27.5361 16.1882 27.2217 16.974 26.5931C17.7913 25.9644 18.1999 25.1157 18.1999 24.0469C18.1999 23.0096 17.7913 22.1766 16.974 21.5479C16.1882 20.9193 14.9623 20.6049 13.2963 20.6049ZM47.4208 35.2688C44.969 35.2688 42.6901 34.8444 40.584 33.9957C38.4779 33.1156 36.6233 31.8897 35.0202 30.318C33.4485 28.7148 32.2069 26.8445 31.2953 24.707C30.4152 22.5381 29.9751 20.1648 29.9751 17.5873C29.9751 15.0097 30.4152 12.6522 31.2953 10.5147C32.2069 8.37717 33.4485 6.52258 35.0202 4.95089C36.6233 3.3792 38.4779 2.169 40.584 1.32028C42.6901 0.440137 44.969 6.43231e-05 47.4208 6.43231e-05C49.8727 6.43231e-05 52.1516 0.440137 54.2577 1.32028C56.3952 2.169 58.2498 3.3792 59.8215 4.95089C61.4246 6.52258 62.6662 8.37717 63.5464 10.5147C64.458 12.6522 64.9137 15.0097 64.9137 17.5873C64.9137 20.1648 64.458 22.5381 63.5464 24.707C62.6662 26.8445 61.4246 28.7148 59.8215 30.318C58.2498 31.8897 56.3952 33.1156 54.2577 33.9957C52.1516 34.8444 49.8727 35.2688 47.4208 35.2688ZM47.4208 27.3003C48.7411 27.3003 49.9198 27.0488 50.9571 26.5459C51.9945 26.043 52.8589 25.3514 53.5504 24.4713C54.2734 23.5597 54.8078 22.5224 55.1536 21.3593C55.5308 20.1648 55.7194 18.9075 55.7194 17.5873C55.7194 16.2671 55.5308 15.0254 55.1536 13.8624C54.8078 12.6993 54.2734 11.6777 53.5504 10.7976C52.8589 9.91743 51.9945 9.22588 50.9571 8.72294C49.9198 8.22 48.7411 7.96853 47.4208 7.96853C46.1006 7.96853 44.9219 8.22 43.8845 8.72294C42.8472 9.22588 41.9671 9.91743 41.2441 10.7976C40.5526 11.6777 40.0182 12.6993 39.641 13.8624C39.2952 15.0254 39.1223 16.2671 39.1223 17.5873C39.1223 18.9075 39.2952 20.1648 39.641 21.3593C40.0182 22.5224 40.5526 23.5597 41.2441 24.4713C41.9671 25.3514 42.8472 26.043 43.8845 26.5459C44.9219 27.0488 46.1006 27.3003 47.4208 27.3003ZM38.7451 34.5615H30.8709L56.1437 0.707324H63.9707L38.7451 34.5615ZM78.4401 34.5615H69.5286V0.707324H83.3909C87.9803 0.707324 91.5166 1.69749 93.9998 3.67782C96.5145 5.62671 97.7719 8.4086 97.7719 12.0235C97.7719 14.1924 97.1432 16.1413 95.8859 17.8702C94.6599 19.5676 92.8996 20.9035 90.605 21.878L98.9035 34.5615H88.2946L81.3634 23.2925H78.4401V34.5615ZM78.4401 8.06283V15.937H83.0137C84.994 15.937 86.4557 15.6227 87.3987 14.994C88.3417 14.3653 88.8133 13.3751 88.8133 12.0235C88.8133 10.6718 88.3417 9.68167 87.3987 9.053C86.4557 8.39289 84.994 8.06283 83.0137 8.06283H78.4401ZM124.554 34.5615L111.069 13.438V34.5615H102.912V0.707324H112.483L124.978 20.2749V0.707324H133.135V34.5615H124.554ZM163.701 26.8288V34.5615H139.748V0.707324H163.371V8.44004H148.66V13.2966H162.003V21.0293H148.66V26.8288H163.701ZM195.396 24.377C195.396 27.5518 194.28 30.0508 192.048 31.8739C189.816 33.6657 186.736 34.5615 182.807 34.5615H168.803V0.707324H182.382C186.092 0.707324 189.015 1.49317 191.152 3.06486C193.321 4.63655 194.406 6.89978 194.406 9.85456C194.406 11.3319 194.029 12.6522 193.274 13.8152C192.52 14.9783 191.435 15.9841 190.021 16.8329C191.75 17.5558 193.07 18.546 193.981 19.8034C194.924 21.0607 195.396 22.5852 195.396 24.377ZM181.675 7.73278H176.866V13.5795H181.675C183.152 13.5795 184.237 13.3123 184.928 12.7779C185.651 12.2435 186.013 11.5206 186.013 10.609C186.013 9.72882 185.651 9.03728 184.928 8.53434C184.237 7.99997 183.152 7.73278 181.675 7.73278ZM182.099 20.6049H176.866V27.5361H182.099C183.765 27.5361 184.991 27.2217 185.777 26.5931C186.594 25.9644 187.003 25.1157 187.003 24.0469C187.003 23.0096 186.594 22.1766 185.777 21.5479C184.991 20.9193 183.765 20.6049 182.099 20.6049ZM208.749 34.5615H199.838V0.707324H208.749V34.5615ZM224.267 34.5615H215.355V0.707324H238.412V8.44004H224.267V14.7111H236.101V22.4438H224.267V34.5615ZM252.032 34.5615H243.121V0.707324H266.177V8.44004H252.032V14.7111H263.867V22.4438H252.032V34.5615ZM294.839 26.8288V34.5615H270.886V0.707324H294.509V8.44004H279.798V13.2966H293.141V21.0293H279.798V26.8288H294.839ZM321.583 34.5615L308.098 13.438V34.5615H299.941V0.707324H309.512L322.007 20.2749V0.707324H330.164V34.5615H321.583Z" fill="#F1F1F1"/>
</svg>
