<svg width="20" height="16" viewBox="0 0 20 16" fill="none" xmlns="http://www.w3.org/2000/svg">
<path d="M17.2892 0H1.72892C0.778015 0 0 0.798824 0 1.77516V4.43791H1.72892V1.77516H17.2892V14.2013H11.238V15.9765H17.2892C18.2401 15.9765 19.0181 15.1776 19.0181 14.2013V1.77516C19.0181 0.798824 18.2401 0 17.2892 0ZM0 13.3137V15.9765H2.59338C2.59338 14.5031 1.43501 13.3137 0 13.3137ZM0 9.7634V11.5386C2.38591 11.5386 4.3223 13.5267 4.3223 15.9765H6.05123C6.05123 12.5415 3.34546 9.7634 0 9.7634ZM0 6.21307V7.98824C4.29637 7.98824 7.78015 11.5652 7.78015 15.9765H9.50907C9.50907 10.58 5.24728 6.21307 0 6.21307Z" fill="#F1F1F1"/>
</svg>
