<svg width="18" height="16" viewBox="0 0 18 16" fill="none" xmlns="http://www.w3.org/2000/svg">
<path d="M9.26753 2.16814C9.73808 1.52803 10.5819 0.748462 11.6704 0.320487C12.7476 -0.103032 14.0701 -0.185955 15.5381 0.562905C17.4084 1.51689 18.105 3.16794 17.9874 4.96831C17.8683 6.79045 16.9095 8.76289 15.4513 10.2506C13.977 11.7547 11.4086 14.3739 9.53912 15.8243C9.22733 16.0662 8.79972 16.0578 8.48954 15.8024C6.76893 14.3856 3.99303 11.7241 2.54871 10.2506C1.09043 8.76289 0.131687 6.79045 0.0126183 4.96831C-0.105039 3.16794 0.591568 1.51689 2.4618 0.562905C3.9299 -0.185955 5.25242 -0.103032 6.32954 0.320487C7.41804 0.748462 8.2619 1.52803 8.73251 2.16814L9.00002 2.53202L9.26753 2.16814Z" fill="#F1F1F1"/>
</svg>
