<svg width="18" height="16" viewBox="0 0 18 16" fill="none" xmlns="http://www.w3.org/2000/svg">
<path d="M11.8535 0.786133C12.8097 0.410164 13.9814 0.330862 15.3105 1.00879C16.9767 1.85865 17.5949 3.30352 17.4883 4.93555C17.3782 6.61883 16.4831 8.48305 15.0938 9.90039C13.6106 11.4135 11.069 14.0049 9.23242 15.4297C9.10935 15.525 8.94123 15.526 8.80762 15.416C7.10684 14.0155 4.34528 11.3685 2.90625 9.90039C1.51692 8.48305 0.621713 6.61882 0.511719 4.93555C0.405106 3.30352 1.02334 1.85865 2.68945 1.00879C4.01855 0.330886 5.1903 0.410169 6.14648 0.786133C7.13193 1.1736 7.90479 1.88545 8.33008 2.46387L8.59668 2.82812L9 3.37598L9.40332 2.82812L9.66992 2.46387C10.0951 1.88546 10.868 1.17361 11.8535 0.786133Z" stroke="#F1F1F1"/>
</svg>
