<svg width="22" height="20" viewBox="0 0 22 20" fill="none" xmlns="http://www.w3.org/2000/svg">
<path d="M10.9989 0C10.581 0 10.1635 0.14054 9.823 0.422585L0.361445 8.25994C0.0106736 8.5504 -0.114181 9.05691 0.118749 9.44691C0.415415 9.94327 1.07192 10.0402 1.4988 9.68661L10.8511 1.9407C10.9368 1.86979 11.0609 1.86979 11.1466 1.9407L20.4989 9.6875C20.6704 9.82977 20.8783 9.89879 21.0855 9.89879C21.4042 9.89879 21.7204 9.73484 21.8951 9.41939C22.1083 9.03393 21.9828 8.54709 21.6426 8.26527L20.1694 7.04457V3.18182C20.1694 2.67955 19.759 2.27273 19.2523 2.27273H18.3353C17.8286 2.27273 17.4182 2.67955 17.4182 3.18182V4.76562L12.1747 0.422585C11.8343 0.14054 11.4167 0 10.9989 0ZM10.9989 3.63636L1.82837 11.2296V17.7273C1.82837 18.9823 2.855 20 4.12099 20H17.8767C19.1427 20 20.1694 18.9823 20.1694 17.7273V11.2296L10.9989 3.63636ZM9.16477 10.9091H12.833C13.3396 10.9091 13.75 11.3159 13.75 11.8182V18.1818H8.24772V11.8182C8.24772 11.3159 8.6581 10.9091 9.16477 10.9091Z" fill="#F1F1F1"/>
</svg>
