<svg width="17" height="20" viewBox="0 0 17 20" fill="none" xmlns="http://www.w3.org/2000/svg">
<path d="M4.00073 7.20915V4.91748C4.00073 2.63931 5.84756 0.79248 8.12573 0.79248C10.4039 0.79248 12.2507 2.63931 12.2507 4.91748V7.20915" stroke="#F1F1F1" stroke-width="1.58475" stroke-linecap="round" stroke-linejoin="round"/>
<path d="M1.03797 16.2333C1.24411 17.7644 2.51227 18.9639 4.0555 19.0348C5.35406 19.0945 6.67317 19.1257 8.12581 19.1257C9.57846 19.1257 10.8975 19.0945 12.1961 19.0348C13.7394 18.9639 15.0075 17.7644 15.2137 16.2333C15.3482 15.2341 15.4591 14.2101 15.4591 13.1673C15.4591 12.1245 15.3482 11.1005 15.2137 10.1013C15.0075 8.57023 13.7394 7.37077 12.1961 7.29982C10.8975 7.24012 9.57846 7.20898 8.12581 7.20898C6.67317 7.20898 5.35406 7.24012 4.0555 7.29982C2.51227 7.37077 1.24411 8.57023 1.03797 10.1013C0.903434 11.1005 0.79248 12.1245 0.79248 13.1673C0.79248 14.2101 0.903434 15.2341 1.03797 16.2333Z" stroke="#F1F1F1" stroke-width="1.58475"/>
<path d="M8.12646 14.0843V12.251" stroke="#F1F1F1" stroke-width="1.58475" stroke-linecap="round"/>
</svg>
