<svg width="16" height="16" viewBox="0 0 16 16" fill="none" xmlns="http://www.w3.org/2000/svg">
<path d="M1.48892e-08 1.20618C1.48892e-08 0.289806 1.06394 -0.290421 1.93411 0.150637L15.3232 6.94528C15.5282 7.04917 15.6991 7.20193 15.8181 7.38762C15.9372 7.5733 16 7.78508 16 8.00083C16 8.21657 15.9372 8.42835 15.8181 8.61404C15.6991 8.79972 15.5282 8.95249 15.3232 9.05637L1.93411 15.851C1.73535 15.9518 1.51154 16.0031 1.28474 15.9999C1.05794 15.9966 0.835991 15.9388 0.640761 15.8322C0.445531 15.7257 0.283763 15.5741 0.171402 15.3922C0.0590408 15.2104 -3.42406e-05 15.0048 1.48892e-08 14.7955V1.20618Z" fill="#F1F1F1"/>
</svg>
