<svg width="22" height="22" viewBox="0 0 22 22" fill="none" xmlns="http://www.w3.org/2000/svg">
<path d="M17.7104 18.5615C16.9091 17.5007 15.8725 16.6403 14.6821 16.0483C13.4917 15.4563 12.1801 15.1488 10.8506 15.15C9.5211 15.1488 8.2095 15.4563 7.0191 16.0483C5.8287 16.6403 4.79203 17.5007 3.99075 18.5615M17.7104 18.5615C19.274 17.1708 20.3767 15.3375 20.8745 13.305C21.3723 11.2724 21.2404 9.13654 20.4964 7.18063C19.7524 5.22473 18.4314 3.5412 16.7086 2.35331C14.9858 1.16542 12.9426 0.529297 10.85 0.529297C8.75739 0.529297 6.7142 1.16542 4.99141 2.35331C3.26862 3.5412 1.94763 5.22473 1.20362 7.18063C0.459622 9.13654 0.32776 11.2724 0.825525 13.305C1.32329 15.3375 2.42716 17.1708 3.99075 18.5615M17.7104 18.5615C15.8229 20.2452 13.3799 21.174 10.8506 21.1704C8.3209 21.1743 5.87857 20.2454 3.99075 18.5615M14.2908 8.2695C14.2908 9.1819 13.9284 10.0569 13.2832 10.7021C12.638 11.3473 11.763 11.7097 10.8506 11.7097C9.93818 11.7097 9.06314 11.3473 8.41797 10.7021C7.7728 10.0569 7.41035 9.1819 7.41035 8.2695C7.41035 7.35709 7.7728 6.48205 8.41797 5.83688C9.06314 5.19171 9.93818 4.82926 10.8506 4.82926C11.763 4.82926 12.638 5.19171 13.2832 5.83688C13.9284 6.48205 14.2908 7.35709 14.2908 8.2695Z" stroke="#F1F1F1" stroke-width="1.05853" stroke-linecap="round" stroke-linejoin="round"/>
</svg>
