<svg width="22" height="22" viewBox="0 0 22 22" fill="none" xmlns="http://www.w3.org/2000/svg">
<path d="M15.3487 15.3489L12.4213 12.4215M12.4213 12.4215C12.7899 12.0529 13.0823 11.6153 13.2817 11.1337C13.4812 10.6521 13.5839 10.1359 13.5839 9.61462C13.5839 9.09333 13.4812 8.57715 13.2817 8.09555C13.0823 7.61394 12.7899 7.17634 12.4213 6.80774C12.0527 6.43913 11.6151 6.14674 11.1334 5.94725C10.6518 5.74776 10.1357 5.64509 9.61438 5.64509C9.09309 5.64509 8.57691 5.74776 8.0953 5.94725C7.6137 6.14674 7.1761 6.43913 6.80749 6.80774C6.06291 7.55233 5.6446 8.5622 5.6446 9.61521C5.6446 10.6682 6.06291 11.6781 6.80749 12.4227C7.55208 13.1673 8.56196 13.5856 9.61496 13.5856C10.668 13.5856 11.6778 13.1673 12.4224 12.4227L12.4213 12.4215ZM21.5235 10.9384C21.5235 12.3285 21.2497 13.7049 20.7177 14.9892C20.1858 16.2735 19.406 17.4404 18.4231 18.4233C17.4402 19.4063 16.2732 20.186 14.989 20.718C13.7047 21.2499 12.3282 21.5237 10.9381 21.5237C9.54805 21.5237 8.17157 21.2499 6.88729 20.718C5.60302 20.186 4.4361 19.4063 3.45316 18.4233C2.47022 17.4404 1.69051 16.2735 1.15854 14.9892C0.626581 13.7049 0.352783 12.3285 0.352783 10.9384C0.352783 8.13097 1.46802 5.43854 3.45316 3.4534C5.4383 1.46827 8.13072 0.353027 10.9381 0.353027C13.7455 0.353027 16.438 1.46827 18.4231 3.4534C20.4082 5.43854 21.5235 8.13097 21.5235 10.9384Z" stroke="#F1F1F1" stroke-width="0.70569" stroke-linecap="round" stroke-linejoin="round"/>
</svg>
