<svg width="13" height="13" viewBox="0 0 13 13" fill="none" xmlns="http://www.w3.org/2000/svg">
<path d="M6.34085 2.53655V6.3411H9.19426M12.0477 6.3411C12.0477 7.09053 11.9001 7.83262 11.6133 8.525C11.3265 9.21738 10.9061 9.8465 10.3762 10.3764C9.84625 10.9064 9.21714 11.3267 8.52476 11.6135C7.83237 11.9003 7.09028 12.0479 6.34085 12.0479C5.59142 12.0479 4.84933 11.9003 4.15695 11.6135C3.46456 11.3267 2.83545 10.9064 2.30552 10.3764C1.77559 9.8465 1.35523 9.21738 1.06844 8.525C0.781644 7.83262 0.634033 7.09053 0.634033 6.3411C0.634033 4.82755 1.23529 3.376 2.30552 2.30577C3.37576 1.23553 4.82731 0.634277 6.34085 0.634277C7.85439 0.634277 9.30594 1.23553 10.3762 2.30577C11.4464 3.376 12.0477 4.82755 12.0477 6.3411Z" stroke="#F1F1F1" stroke-width="1.26818" stroke-linecap="round" stroke-linejoin="round"/>
</svg>
